<?xml version="1.0" standalone="no"?>
<!DOCTYPE svg PUBLIC "-//W3C//DTD SVG 20010904//EN"
 "http://www.w3.org/TR/2001/REC-SVG-20010904/DTD/svg10.dtd">
<svg version="1.0" xmlns="http://www.w3.org/2000/svg"
 width="500.000000pt" height="180.000000pt" viewBox="0 0 500.000000 180.000000"
 preserveAspectRatio="xMidYMid meet">

<g transform="translate(0.000000,180.000000) scale(0.100000,-0.100000)"
fill="#000000" stroke="none">
<path d="M824 1749 c23 -27 28 -57 11 -77 -1 -1 -33 10 -71 24 -56 21 -81 25
-130 21 -69 -5 -91 -14 -76 -29 14 -14 3 -38 -14 -31 -10 3 -14 -2 -13 -18 0
-13 3 -18 6 -11 2 6 10 12 17 12 6 0 17 14 23 31 7 19 16 28 23 24 9 -5 9 -10
1 -18 -6 -6 -11 -20 -11 -31 0 -17 2 -18 9 -7 5 8 19 16 31 18 12 2 19 -1 16
-6 -9 -14 23 -22 44 -11 12 7 20 6 22 -1 2 -5 18 -11 36 -11 17 -1 32 -5 32
-11 0 -5 9 -7 21 -4 16 4 19 2 14 -11 -4 -9 -9 -24 -12 -32 -2 -9 -29 -29 -59
-45 -30 -16 -54 -33 -54 -36 0 -10 -37 -69 -87 -138 -43 -58 -49 -87 -30 -128
14 -31 31 -29 23 2 -5 19 -2 25 10 25 10 0 14 5 10 15 -3 8 0 15 7 15 7 0 20
12 29 28 9 15 25 37 35 48 48 56 73 89 73 96 0 4 4 7 9 6 5 -2 17 6 25 17 16
20 16 20 37 -5 14 -17 19 -32 14 -50 -3 -14 -10 -44 -15 -67 -5 -24 -19 -63
-30 -89 -22 -48 -23 -85 -2 -92 6 -2 16 6 20 18 8 20 9 20 23 3 12 -14 14 -28
6 -70 l-9 -53 -409 0 -409 0 0 -495 c0 -341 3 -502 11 -518 6 -14 22 -30 36
-36 34 -16 4832 -16 4866 0 14 6 30 22 36 36 8 16 11 177 11 518 l0 495 -435
0 -434 0 -5 33 c-3 17 -10 56 -15 86 -7 43 -6 58 5 68 12 12 14 12 14 -1 0 -9
8 -16 20 -16 27 0 26 28 -5 96 -14 30 -25 63 -25 74 0 10 -5 31 -12 47 -21 51
-15 119 7 83 4 -6 10 -8 14 -5 16 9 161 -148 169 -182 2 -8 10 -12 18 -9 9 3
14 -1 14 -14 0 -11 5 -20 10 -20 6 0 10 -12 10 -26 0 -23 2 -24 15 -10 30 29
18 77 -35 145 -28 35 -50 69 -50 75 0 17 -58 69 -102 91 -20 10 -41 29 -47 42
-15 33 -14 36 10 30 15 -4 19 -2 15 9 -3 9 1 13 12 12 46 -4 61 2 55 20 -6 16
-5 16 13 1 23 -20 54 -21 54 -2 0 9 5 11 12 7 7 -5 21 -9 30 -9 17 -2 17 0 3
22 -15 22 -14 23 5 23 12 0 18 5 15 10 -3 6 -37 10 -75 10 -38 0 -72 -4 -75
-10 -3 -5 -14 -10 -23 -10 -9 0 -28 -6 -42 -13 -22 -12 -28 -11 -39 0 -7 8
-11 23 -8 34 4 16 0 19 -27 19 -45 0 -76 -35 -77 -86 -1 -38 -1 -39 -12 -11
-6 15 -16 27 -22 27 -7 0 -20 9 -31 21 -36 39 -69 49 -169 49 -52 0 -95 -4
-95 -9 0 -9 84 -26 113 -22 9 1 17 -4 17 -12 0 -10 8 -13 28 -10 25 4 26 3 9
-11 -12 -9 -17 -21 -13 -34 7 -22 -28 -49 -96 -73 -47 -16 -95 -65 -107 -107
-9 -30 -8 -32 15 -30 13 1 24 7 24 12 0 5 3 6 6 3 4 -4 19 2 34 13 16 11 33
20 39 20 6 0 11 4 11 9 0 11 73 21 100 14 20 -5 20 -6 3 -32 -9 -14 -23 -32
-30 -39 -7 -8 -21 -28 -29 -45 -9 -18 -24 -39 -34 -47 -26 -22 -35 -74 -15
-90 14 -11 17 -10 22 9 3 13 11 20 19 17 8 -3 14 1 14 9 0 8 6 12 14 9 9 -3
19 6 27 25 8 18 19 29 26 26 7 -2 13 1 13 8 0 7 13 28 29 47 23 27 32 32 41
23 7 -6 18 -9 25 -7 9 4 10 -9 4 -50 -4 -30 -10 -60 -14 -66 -4 -6 -1 -17 5
-25 10 -12 10 -18 0 -30 -8 -9 -9 -15 -2 -15 6 0 14 5 17 10 4 7 12 7 25 0 13
-7 21 -7 25 0 13 20 24 -1 30 -58 3 -31 8 -78 11 -104 l5 -48 -479 0 -479 0
-7 75 c-4 42 -4 80 -1 85 4 6 68 10 151 10 85 0 144 4 144 10 0 5 -124 8 -325
7 -213 -1 -324 1 -321 8 1 6 10 9 20 7 16 -3 23 24 7 30 -5 2 -6 18 -4 36 5
29 9 32 39 32 23 0 37 -6 44 -21 10 -17 8 -21 -9 -26 -36 -9 -12 -23 41 -23
50 0 50 0 46 30 l-5 30 69 0 68 0 0 114 0 114 -62 6 c-35 3 -121 7 -193 8
l-130 3 -3 -33 c-2 -18 2 -40 9 -48 10 -13 10 -17 -2 -25 -25 -16 -29 -10 -29
51 l0 60 -194 0 c-124 0 -197 -4 -201 -10 -4 -6 -3 -60 0 -120 l8 -110 79 0
80 0 -4 -31 c-5 -30 -4 -31 26 -25 30 6 31 6 9 -9 -12 -8 -26 -15 -30 -14 -33
6 -153 -3 -153 -11 0 -6 32 -10 76 -10 69 0 75 -2 69 -17 -18 -43 -18 -56 0
-70 14 -10 16 -16 8 -24 -9 -9 -28 -7 -77 6 -73 20 -128 12 -66 -10 19 -6 36
-19 38 -28 3 -14 -5 -17 -47 -17 -38 0 -56 -5 -71 -20 -18 -18 -33 -20 -179
-20 l-158 0 -7 71 c-3 39 -4 75 -1 80 4 5 75 10 158 10 84 1 206 5 272 9 66 3
-80 5 -325 2 -245 -2 -447 -6 -449 -8 -2 -2 54 -4 125 -4 181 0 174 3 174 -86
l0 -74 -451 0 -452 0 7 73 c4 39 12 76 17 81 6 6 9 3 9 -9 0 -16 2 -17 18 -3
9 9 25 14 34 13 15 -3 16 0 7 17 -10 19 -9 20 11 15 20 -5 20 -4 7 11 -19 22
-31 102 -16 102 8 0 8 4 -1 15 -10 12 -10 15 4 15 19 0 22 16 4 23 -8 2 -9 8
-4 13 5 5 11 4 13 -3 3 -7 9 -13 14 -13 14 0 68 -63 69 -80 1 -10 4 -8 10 5 7
18 8 17 15 -10 9 -35 34 -67 46 -59 5 3 9 0 9 -6 0 -6 4 -9 9 -5 5 3 17 -5 25
-17 9 -12 16 -17 16 -10 0 7 4 11 9 8 15 -10 22 25 9 48 -17 30 -64 95 -110
154 -21 26 -38 51 -38 57 0 5 5 3 11 -5 8 -11 12 -12 15 -3 5 12 93 7 104 -6
5 -6 34 -23 70 -41 11 -5 29 -14 40 -20 17 -9 19 -6 18 25 -2 46 -59 106 -119
125 -68 22 -91 40 -86 67 3 15 -1 23 -9 23 -8 0 -14 5 -14 11 0 7 10 9 26 5
22 -6 25 -4 20 10 -5 14 -2 16 24 10 19 -3 29 -2 25 4 -3 6 1 7 9 4 9 -3 16
-1 16 6 0 6 5 8 10 5 12 -7 42 13 36 24 -2 3 13 5 35 3 21 -2 39 -8 39 -14 0
-5 5 -6 10 -3 6 4 17 2 24 -4 10 -9 15 -8 20 5 12 30 -23 42 -127 42 -83 1
-108 -3 -162 -24 -35 -14 -76 -38 -91 -54 -16 -16 -35 -30 -42 -30 -7 0 -17
-11 -22 -25 -13 -35 -20 -31 -13 8 5 30 0 39 -43 80 -38 36 -57 47 -82 47
l-34 0 26 -31z m-154 -58 c0 -5 -11 -8 -25 -7 -33 1 -33 16 0 16 14 0 25 -4
25 -9z m3342 -33 c-7 -7 -12 -8 -12 -2 0 14 12 26 19 19 2 -3 -1 -11 -7 -17z
m63 -28 c-3 -5 -17 -10 -31 -10 -13 0 -24 5 -24 10 0 6 14 10 31 10 17 0 28
-4 24 -10z m-3150 -10 c3 -5 2 -10 -4 -10 -5 0 -13 5 -16 10 -3 6 -2 10 4 10
5 0 13 -4 16 -10z m-17 -29 c11 -7 11 -9 0 -13 -20 -8 -79 3 -72 13 7 11 55
11 72 0z m1642 -16 c0 -3 -7 -21 -14 -40 -12 -27 -21 -35 -40 -35 -18 0 -26 6
-27 18 0 14 -2 14 -9 -3 -14 -32 -11 -38 14 -33 39 8 47 -3 35 -45 l-10 -37
-64 0 c-74 0 -72 -4 -47 95 l18 70 45 6 c63 9 99 10 99 4z m372 -65 c-1 -25
-5 -61 -8 -80 -5 -34 -6 -35 -44 -32 -22 2 -40 7 -40 10 0 3 5 34 11 69 9 50
16 66 33 73 40 17 51 8 48 -40z m-2012 31 c0 -6 -4 -13 -10 -16 -5 -3 -10 1
-10 9 0 9 5 16 10 16 6 0 10 -4 10 -9z m1690 -25 c0 -2 -7 -7 -16 -10 -8 -3
-12 -2 -9 4 6 10 25 14 25 6z m-1750 -26 c0 -5 -5 -10 -11 -10 -5 0 -7 5 -4
10 3 6 8 10 11 10 2 0 4 -4 4 -10z m1760 -33 c0 -4 5 -5 12 -1 6 4 8 3 5 -4
-8 -12 -24 -11 -51 5 -10 6 -16 15 -12 21 8 13 46 -5 46 -21z m1340 29 c0 -3
-4 -8 -10 -11 -5 -3 -10 -1 -10 4 0 6 5 11 10 11 6 0 10 -2 10 -4z m-1384
-101 c-11 -8 -22 -15 -26 -15 -3 0 -10 -10 -15 -22 -15 -33 -45 -36 -45 -5 0
18 7 27 25 31 14 4 25 11 25 16 0 6 12 10 28 10 26 -1 26 -1 8 -15z m464 -230
l0 -85 -185 0 c-114 0 -185 4 -185 10 0 10 46 135 55 151 4 5 75 9 161 9 l154
0 0 -85z m-552 -20 c-11 -20 -23 -34 -25 -31 -5 5 35 66 42 66 3 0 -5 -16 -17
-35z m-118 -25 c0 -5 -2 -10 -4 -10 -3 0 -8 5 -11 10 -3 6 -1 10 4 10 6 0 11
-4 11 -10z m1266 -170 c28 0 28 -3 3 -55 -11 -22 -17 -32 -14 -22 18 64 18 67
-4 67 -14 0 -21 6 -20 18 0 10 3 12 6 5 2 -7 16 -13 29 -13z m690 0 c28 0 28
-3 3 -55 -11 -22 -17 -32 -14 -22 18 64 18 67 -4 67 -14 0 -21 6 -20 18 0 10
3 12 6 5 2 -7 16 -13 29 -13z m-1503 -8 c-6 -4 -13 -25 -16 -47 l-4 -40 -1 42
c-2 35 -6 42 -24 46 -13 2 -6 5 17 5 22 1 35 -2 28 -6z m73 -40 l1 -42 -4 39
c-3 31 -9 41 -26 45 -18 4 -18 4 3 3 22 -2 25 -7 26 -45z m41 -19 c-2 -16 -4
-5 -4 22 0 28 2 40 4 28 2 -13 2 -35 0 -50z m96 35 c-7 -37 -20 -58 -37 -58
-6 0 -3 5 7 11 10 6 17 22 17 39 0 24 -5 29 -27 33 -23 3 -21 4 9 6 37 1 37 1
31 -31z m95 -5 c3 -27 -1 -35 -22 -45 -32 -14 -33 -13 -42 41 l-7 42 34 -3
c30 -3 34 -7 37 -35z m40 1 c-3 -14 -5 -12 -10 9 -3 19 -2 25 4 19 6 -6 8 -18
6 -28z m85 28 c-6 -4 -13 -25 -16 -47 l-4 -40 -1 42 c-2 35 -6 42 -24 46 -13
2 -6 5 17 5 22 1 35 -2 28 -6z m133 -42 l1 -45 -4 43 c-3 33 -8 42 -23 42 -14
0 -20 -9 -22 -37 -2 -20 -9 -38 -16 -39 -7 -1 -8 0 -2 3 5 2 10 23 10 44 0 38
2 40 28 37 25 -3 27 -7 28 -48z m80 2 l1 -42 -4 39 c-3 31 -9 41 -26 45 -18 4
-18 4 3 3 22 -2 25 -7 26 -45z m43 26 l9 -23 10 25 c11 25 11 25 11 2 1 -12
-6 -25 -14 -28 -19 -8 -20 -34 -1 -34 17 0 35 21 47 57 8 26 9 25 4 -7 -6 -37
-27 -60 -56 -60 -13 0 -18 11 -21 45 -4 51 -1 55 11 23z m277 -28 l1 -45 -4
43 c-3 33 -8 42 -23 42 -14 0 -20 -9 -22 -37 -2 -22 -9 -38 -18 -41 -12 -4
-13 -2 -2 9 6 7 12 28 12 47 0 30 2 33 28 30 25 -3 27 -7 28 -48z m41 -17 c-2
-16 -4 -5 -4 22 0 28 2 40 4 28 2 -13 2 -35 0 -50z m81 55 c28 -28 7 -79 -32
-77 -18 1 -17 2 4 8 19 5 25 13 25 36 0 25 -4 30 -22 29 -13 0 -23 3 -23 8 0
12 34 10 48 -4z m80 0 c7 -7 11 -28 11 -47 l-2 -36 -6 40 c-5 31 -11 41 -31
46 -21 6 -22 7 -4 8 11 1 25 -4 32 -11z m51 -45 c1 -25 2 -26 25 -17 19 7 22
61 4 67 -8 2 -7 3 2 3 9 -1 16 -13 18 -34 3 -26 -1 -34 -22 -44 -15 -6 -28 -9
-30 -7 -2 2 -6 24 -9 49 -4 30 -3 38 3 25 5 -11 9 -30 9 -42z m115 39 c9 12
11 6 11 -29 0 -41 -1 -43 -30 -42 l-30 1 27 7 28 6 -20 30 c-11 17 -20 35 -20
40 1 6 6 1 12 -9 9 -17 12 -17 22 -4z m104 6 c7 -7 11 -28 11 -47 l-2 -36 -6
40 c-5 34 -10 41 -36 46 -28 6 -28 7 -4 8 14 0 30 -4 37 -11z m208 -38 l1 -45
-4 42 c-3 33 -8 43 -26 46 -18 3 -18 4 3 3 23 -1 25 -5 26 -46z m62 2 c3 -38
1 -42 -20 -41 -17 1 -18 3 -5 6 19 5 25 67 7 76 -6 3 -5 4 2 3 8 -1 14 -21 16
-44z m98 25 c2 -13 1 -14 -3 -2 -9 29 -37 11 -49 -30 l-12 -40 2 45 c1 44 2
46 31 45 21 0 30 -5 31 -18z m67 15 c-6 -4 -13 -25 -15 -47 l-3 -40 -5 48 c-5
42 -3 47 15 47 13 0 16 -3 8 -8z m83 -42 l1 -45 -4 42 c-3 33 -8 43 -26 46
-18 3 -18 4 3 3 23 -1 25 -5 26 -46z m-1799 -47 c-2 -16 -4 -5 -4 22 0 28 2
40 4 28 2 -13 2 -35 0 -50z m893 46 c0 -6 -4 -7 -10 -4 -5 3 -10 11 -10 16 0
6 5 7 10 4 6 -3 10 -11 10 -16z m337 -26 c-3 -10 -5 -4 -5 12 0 17 2 24 5 18
2 -7 2 -21 0 -30z m210 0 c-3 -10 -5 -4 -5 12 0 17 2 24 5 18 2 -7 2 -21 0
-30z m310 0 c-3 -10 -5 -4 -5 12 0 17 2 24 5 18 2 -7 2 -21 0 -30z m-100 2
c-4 -8 -14 -14 -24 -14 -17 1 -17 2 0 6 9 2 17 12 17 20 0 9 3 14 6 10 4 -3 4
-13 1 -22z m-94 -238 c33 -12 17 -32 -41 -49 -47 -15 -63 -26 -90 -62 -25 -34
-32 -51 -27 -67 4 -13 8 -53 10 -91 1 -57 0 -66 -12 -56 -28 23 -43 68 -43
129 0 53 2 60 16 55 15 -6 16 1 10 57 -6 59 -4 65 18 86 19 18 33 22 65 19 32
-3 41 0 41 12 1 11 5 10 18 -5 9 -12 25 -24 35 -28z m124 32 c36 -14 44 -28
37 -64 -6 -29 -6 -30 13 -12 19 16 20 16 31 -8 16 -34 15 -61 -2 -88 -14 -21
-19 -51 -17 -92 1 -25 18 -8 24 25 4 21 5 19 6 -8 0 -18 -5 -47 -13 -65 -15
-35 -52 -74 -62 -64 -9 9 -5 125 6 172 8 33 6 47 -10 80 -18 35 -18 41 -5 51
8 6 15 19 15 28 0 14 -4 15 -20 6 -23 -12 -40 -6 -40 14 0 7 -10 18 -22 24
-23 11 -23 11 4 11 15 1 39 -4 55 -10z m-1007 -19 c0 -5 -9 -10 -20 -10 -18 0
-20 -7 -20 -60 0 -33 -4 -60 -10 -60 -6 0 -10 27 -10 60 0 53 -2 60 -20 60
-11 0 -20 5 -20 10 0 6 23 10 50 10 28 0 50 -4 50 -10z m201 -7 c13 -15 11
-16 -10 -10 -38 10 -61 -9 -61 -48 0 -35 22 -57 48 -48 17 7 15 33 -3 33 -8 0
-15 5 -15 10 0 6 11 10 25 10 21 0 25 -5 25 -30 0 -60 -78 -63 -100 -4 -25 66
50 138 91 87z m130 4 c-1 -12 -15 -9 -19 4 -3 6 1 10 8 8 6 -3 11 -8 11 -12z
m109 -61 c11 -33 18 -61 16 -64 -8 -7 -26 9 -26 24 0 22 -48 18 -55 -6 -3 -11
-11 -20 -16 -20 -12 0 -12 -2 11 64 33 96 37 96 70 2z m60 66 c0 -13 -12 -22
-22 -16 -10 6 -1 24 13 24 5 0 9 -4 9 -8z m-715 -17 c26 -20 26 -79 -1 -103
-31 -29 -89 -16 -104 22 -11 29 -1 76 16 76 8 0 14 5 14 10 0 15 52 11 75 -5z
m293 -27 c7 -7 12 -20 12 -30 0 -13 -8 -18 -31 -18 -20 0 -29 -4 -26 -12 2 -7
13 -13 25 -13 30 -1 37 -12 13 -20 -49 -15 -90 47 -56 85 20 23 45 26 63 8z
m205 -5 c-16 -11 -23 -26 -23 -49 0 -19 -4 -34 -10 -34 -5 0 -10 23 -10 50 0
50 0 50 33 49 32 0 32 0 10 -16z m47 -33 c0 -27 -4 -50 -10 -50 -5 0 -10 23
-10 50 0 28 5 50 10 50 6 0 10 -22 10 -50z m170 0 c0 -27 -4 -50 -10 -50 -5 0
-10 23 -10 50 0 28 5 50 10 50 6 0 10 -22 10 -50z m-2938 12 c22 -21 23 -30
23 -157 0 -127 -1 -136 -23 -157 l-23 -23 -424 0 -424 0 -23 23 c-21 21 -23
33 -26 145 -3 133 5 162 48 184 19 10 119 12 437 11 l412 -3 23 -23z m3438
-97 l0 -45 -50 0 c-50 0 -50 0 -45 28 l6 27 -16 -27 c-20 -35 -39 -37 -31 -4
3 14 1 28 -5 32 -22 13 17 29 80 32 l61 3 0 -46z m-187 -104 c-2 -3 -11 2 -19
11 -14 13 -14 19 -3 39 13 24 13 24 19 -11 3 -19 4 -37 3 -39z m-1103 -26 c0
-9 9 -15 25 -15 14 0 25 -2 25 -5 0 -16 -34 -85 -42 -85 -6 0 -7 7 -4 16 19
50 18 64 -3 64 -14 0 -21 6 -21 20 0 11 5 20 10 20 6 0 10 -7 10 -15z m-932
-7 c16 -16 15 -43 -3 -58 -26 -21 -17 -29 30 -26 54 3 64 10 34 26 -20 11 -20
13 -6 22 24 13 21 31 -4 25 -13 -3 -19 -1 -16 6 2 7 15 12 28 12 19 0 24 -5
25 -25 0 -14 3 -31 7 -37 16 -25 -21 -62 -46 -46 -6 3 -33 5 -60 4 l-50 -2 27
31 c35 42 35 64 -1 55 -23 -5 -25 -4 -14 9 16 19 33 20 49 4z m169 0 c4 -7 8
-30 9 -51 2 -40 -20 -63 -50 -51 -23 9 -19 24 5 21 12 -1 24 4 26 11 3 6 -2
12 -11 12 -21 0 -21 16 0 24 22 8 6 28 -17 21 -21 -7 -27 10 -6 18 21 9 36 7
44 -5z m123 -23 c0 -44 10 -44 30 -2 15 32 49 44 57 20 3 -7 -3 -10 -15 -6
-12 3 -22 -1 -25 -11 -4 -10 -1 -13 7 -10 14 5 46 -20 46 -36 0 -11 -29 -40
-41 -40 -5 0 -14 9 -21 20 -15 23 -38 27 -38 5 0 -8 -4 -15 -10 -15 -5 0 -10
7 -10 15 0 8 -9 15 -20 15 -25 0 -25 3 3 45 28 44 37 44 37 0z m154 29 c20 -8
20 -43 0 -69 -14 -18 -13 -21 8 -27 18 -5 15 -6 -14 -7 -43 -1 -47 8 -18 34
11 10 20 27 20 38 0 14 -5 18 -20 14 -20 -5 -26 3 -13 16 8 9 17 9 37 1z m837
-64 c5 0 4 -9 -3 -20 -11 -16 -14 -17 -21 -5 -4 8 -17 15 -27 15 -26 0 -25 6
8 49 l27 36 3 -37 c2 -21 7 -38 13 -38z m75 40 c0 -14 3 -31 7 -37 18 -29 -21
-60 -54 -43 -27 15 -24 23 5 16 32 -8 43 10 15 25 -20 10 -20 12 -6 21 24 13
21 31 -3 25 -11 -3 -20 -2 -20 2 0 14 14 22 35 19 14 -2 20 -11 21 -28z m124
15 c0 -5 -8 -10 -17 -10 -9 0 -18 -5 -20 -11 -2 -7 3 -11 13 -10 24 2 42 -30
28 -51 -15 -24 -29 -26 -48 -8 -21 21 -21 69 0 90 17 17 45 17 44 0z m77 3
c15 -20 14 -85 -2 -98 -10 -8 -19 -9 -35 0 -17 9 -20 17 -15 48 9 54 13 62 28
62 8 0 19 -6 24 -12z m93 2 c0 -5 -9 -10 -20 -10 -26 0 -26 -16 1 -23 15 -4
20 -12 17 -33 -4 -38 -32 -54 -55 -31 -17 18 -17 18 10 12 23 -6 27 -4 27 14
0 14 -6 21 -20 21 -16 0 -20 7 -20 30 0 27 3 30 30 30 17 0 30 -4 30 -10z
m-2302 -57 l3 -43 -40 0 -41 0 0 46 0 45 38 -3 c36 -3 37 -4 40 -45z m42 17
c0 -16 -4 -30 -10 -30 -5 0 -10 14 -10 30 0 17 5 30 10 30 6 0 10 -13 10 -30z
m39 13 c10 -17 10 -17 11 0 0 9 5 17 10 17 16 0 12 -32 -7 -53 -17 -19 -17
-19 2 -16 12 3 24 16 30 37 12 42 29 42 21 0 -8 -39 -23 -55 -56 -60 -23 -3
-25 1 -30 45 -6 49 1 60 19 30z m158 5 c18 -15 16 -48 -4 -70 -17 -19 -43 -24
-43 -8 0 6 6 10 14 10 16 0 31 34 21 50 -11 17 -35 11 -35 -9 0 -11 -3 -26 -6
-35 -11 -30 -21 -16 -20 27 1 42 3 44 31 45 16 0 35 -4 42 -10z m107 -10 c9
-35 7 -68 -4 -68 -5 0 -10 13 -10 28 0 27 -15 52 -32 52 -4 0 -8 -15 -8 -34 0
-35 -23 -66 -35 -46 -3 5 -1 10 4 10 6 0 11 18 11 40 0 39 1 40 34 40 26 0 35
-5 40 -22z m37 0 l0 -23 11 23 c6 12 14 22 19 22 9 0 -1 -39 -12 -46 -14 -8
-11 -24 5 -24 15 0 26 21 26 51 0 10 5 19 10 19 6 0 10 -13 10 -28 0 -31 -21
-55 -56 -66 -18 -6 -22 -1 -28 31 -8 52 -8 63 4 63 6 0 10 -10 11 -22z m165
-2 c11 -46 -23 -93 -49 -67 -5 5 -15 7 -21 5 -8 -3 -11 11 -11 41 l0 45 37 0
c31 0 39 -4 44 -24z m922 -36 c2 -29 -1 -57 -7 -63 -6 -6 -10 14 -13 57 -2 41
1 65 7 63 6 -2 11 -27 13 -57z m40 27 c5 -37 -15 -34 -20 3 -3 19 -1 29 6 27
6 -2 12 -16 14 -30z m32 3 c0 -16 -4 -30 -10 -30 -5 0 -10 14 -10 30 0 17 5
30 10 30 6 0 10 -13 10 -30z m148 -17 c3 -41 2 -43 -25 -43 -24 1 -25 2 -10
11 9 5 17 21 17 34 0 13 -8 29 -17 35 -16 9 -15 10 7 8 22 -3 25 -9 28 -45z
m32 2 c0 -25 -4 -45 -10 -45 -5 0 -10 20 -10 45 0 25 5 45 10 45 6 0 10 -20
10 -45z m54 28 c6 -14 8 -14 20 3 19 25 29 14 17 -18 -5 -15 -5 -30 0 -41 15
-26 -7 -21 -26 6 l-15 22 -6 -22 c-4 -13 -11 -23 -16 -23 -6 0 -7 11 -3 28 4
15 7 35 7 45 -1 22 14 22 22 0z m-560 -9 c8 -21 -1 -34 -25 -34 -12 0 -19 7
-19 18 0 34 33 45 44 16z m1184 -11 c-2 -10 -10 -18 -18 -18 -8 0 -16 8 -18
18 -2 12 3 17 18 17 15 0 20 -5 18 -17z m-1530 -55 c-4 -29 -25 -35 -22 -6 3
29 2 28 15 28 6 0 9 -10 7 -22z m1188 11 c3 -6 0 -18 -9 -26 -13 -13 -14 -12
-14 11 0 27 11 34 23 15z"/>
<path d="M3064 899 c8 -41 12 -45 31 -29 23 19 15 54 -14 58 -22 4 -23 1 -17
-29z"/>
<path d="M4037 595 c-8 -20 -4 -29 11 -24 5 2 6 13 2 23 -6 19 -7 19 -13 1z"/>
<path d="M3388 588 c-3 -7 -12 -13 -21 -13 -22 0 -24 -17 -3 -30 13 -8 21 -5
36 15 11 14 20 28 20 33 0 12 -28 8 -32 -5z"/>
<path d="M3670 580 c0 -5 9 -10 20 -10 11 0 20 5 20 10 0 6 -9 10 -20 10 -11
0 -20 -4 -20 -10z"/>
<path d="M2675 290 c-3 -5 -1 -10 4 -10 6 0 11 5 11 10 0 6 -2 10 -4 10 -3 0
-8 -4 -11 -10z"/>
<path d="M2756 282 c-2 -4 -1 -14 4 -22 7 -11 12 -12 21 -3 6 6 8 16 5 22 -8
13 -23 14 -30 3z"/>
<path d="M3660 295 c-10 -12 -10 -15 4 -15 9 0 16 7 16 15 0 8 -2 15 -4 15 -2
0 -9 -7 -16 -15z"/>
<path d="M3862 273 c5 -25 28 -28 28 -4 0 12 -6 21 -16 21 -9 0 -14 -7 -12
-17z"/>
<path d="M3950 315 c0 -8 5 -15 10 -15 6 0 10 7 10 15 0 8 -4 15 -10 15 -5 0
-10 -7 -10 -15z"/>
<path d="M3940 265 c0 -8 7 -15 15 -15 8 0 15 7 15 15 0 8 -7 15 -15 15 -8 0
-15 -7 -15 -15z"/>
<path d="M1714 306 c-9 -24 0 -51 19 -54 15 -3 18 2 15 29 -3 35 -24 51 -34
25z"/>
<path d="M2267 303 c-4 -3 -7 -17 -7 -30 0 -35 34 -26 38 10 3 26 -14 37 -31
20z"/>
<path d="M3520 1765 c9 -10 17 -12 23 -6 5 5 16 7 23 4 8 -3 14 0 14 6 0 6
-16 11 -36 11 -32 0 -35 -2 -24 -15z"/>
<path d="M4401 1705 c0 -16 4 -37 9 -45 8 -12 10 -10 9 10 0 14 -4 34 -9 45
-7 17 -9 16 -9 -10z"/>
<path d="M4357 1703 c-3 -5 1 -14 9 -21 12 -11 14 -9 14 8 0 20 -14 27 -23 13z"/>
<path d="M4436 1683 c10 -41 21 -48 34 -23 13 24 -1 50 -26 50 -11 0 -13 -8
-8 -27z"/>
<path d="M1940 1672 c0 -10 6 -26 13 -36 12 -16 14 -15 36 8 23 24 23 24 3 35
-31 16 -52 13 -52 -7z"/>
<path d="M443 1648 c-12 -16 -15 -60 -3 -53 4 3 10 0 12 -6 2 -7 11 7 20 30
16 39 15 41 -2 41 -9 0 -22 -6 -27 -12z"/>
<path d="M490 1620 c0 -11 5 -20 10 -20 6 0 10 9 10 20 0 11 -4 20 -10 20 -5
0 -10 -9 -10 -20z"/>
<path d="M1834 1585 c-4 -9 -3 -68 1 -132 l7 -116 64 7 c63 6 64 6 64 -18 0
-33 12 -38 65 -30 45 6 63 24 24 24 -14 0 -19 5 -17 18 2 12 14 18 38 19 19 2
59 6 88 9 l52 5 0 116 0 116 -97 -6 c-262 -18 -288 -19 -273 -8 11 8 11 11 2
11 -7 0 -15 -7 -18 -15z m306 -29 c0 -23 -23 -55 -42 -58 -18 -2 -25 -14 -36
-60 -14 -56 -15 -58 -48 -58 -39 0 -39 -1 -19 63 l14 47 -30 0 c-27 0 -30 3
-23 23 3 12 8 24 11 27 9 10 173 25 173 16z"/>
<path d="M1714 1516 c-3 -8 -1 -23 5 -35 16 -29 14 -38 -9 -44 -19 -5 -21 -12
-18 -74 l3 -68 34 -3 c19 -2 40 -11 46 -19 9 -12 20 -14 41 -9 l29 8 -25 18
c-19 15 -24 29 -28 80 -4 49 -8 64 -22 67 -19 5 -30 31 -30 71 0 24 -18 30
-26 8z m56 -180 c0 -27 -22 -40 -39 -23 -21 21 -13 47 14 47 20 0 25 -5 25
-24z"/>
<path d="M1730 1335 c0 -8 7 -15 15 -15 8 0 15 7 15 15 0 8 -7 15 -15 15 -8 0
-15 -7 -15 -15z"/>
<path d="M3110 1370 c0 -65 2 -70 24 -76 13 -3 35 -4 47 -2 22 3 24 8 27 76
l3 72 -51 0 -50 0 0 -70z m37 28 c-3 -8 -6 -5 -6 6 -1 11 2 17 5 13 3 -3 4
-12 1 -19z m28 -58 c0 -16 -6 -26 -18 -28 -19 -4 -32 20 -23 44 9 25 41 13 41
-16z"/>
<path d="M3142 1338 c6 -18 28 -21 28 -4 0 9 -7 16 -16 16 -9 0 -14 -5 -12
-12z"/>
<path d="M2120 1310 c-12 -7 -13 -13 -4 -27 21 -32 101 -12 91 22 -5 14 -68
18 -87 5z"/>
<path d="M22 1118 c6 -16 68 -23 68 -8 0 6 -4 9 -9 6 -5 -4 -21 -2 -36 4 -20
8 -26 7 -23 -2z"/>
<path d="M3483 1113 c15 -2 37 -2 50 0 12 2 0 4 -28 4 -27 0 -38 -2 -22 -4z"/>
<path d="M1210 1100 c0 -5 5 -10 10 -10 6 0 10 5 10 10 0 6 -4 10 -10 10 -5 0
-10 -4 -10 -10z"/>
<path d="M198 1093 c7 -3 16 -2 19 1 4 3 -2 6 -13 5 -11 0 -14 -3 -6 -6z"/>
</g>
</svg>
